<?xml version="1.0" encoding="utf-8"?>
<!-- Svg Vector Icons : http://www.onlinewebfonts.com/icon -->
<!DOCTYPE svg PUBLIC "-//W3C//DTD SVG 1.1//EN" "http://www.w3.org/Graphics/SVG/1.1/DTD/svg11.dtd">
<svg version="1.1" xmlns="http://www.w3.org/2000/svg" xmlns:xlink="http://www.w3.org/1999/xlink" x="0px" y="0px" viewBox="0 0 1000 1000" enable-background="new 0 0 1000 1000" xml:space="preserve">
<metadata> Svg Vector Icons : http://www.onlinewebfonts.com/icon </metadata>
<g><g><path stroke="black" stroke-width="8px" fill="transparent" d="M980.6,384.2l-272-271.7c-12.4-12.5-32.6-12.5-45.1,0L499.8,276.2L336.2,112.5c-12.4-12.5-32.6-12.5-45.1,0L19.3,384.2c-12.5,12.4-12.5,32.6,0,45.1l183,183.1c0.9,1.2,1.9,2.4,2.9,3.5l271.8,271.7c4.8,4.7,10.6,7.6,16.6,8.7c2,0.4,4.3,0.6,6.2,0.6c8.1,0,16.3-3.1,22.5-9.3l458.1-458.2c5.9-6,9.4-14.1,9.4-22.6C990,398.2,986.5,390.1,980.6,384.2z M499.8,820.2l-246.2-246c-1-1.3-1.9-2.4-3-3.5L87,406.7l226.7-226.6l141.3,141.1l-96.1,95.9c-12.4,12.4-12.4,32.7,0,45.1c12.4,12.4,32.7,12.4,45.1,0l282.2-282.1l226.9,226.6L499.8,820.2z M679.9,236.4l159.4,159.1c3.2,2.9,4.6,7.1,4.6,11.3c0,4.2-1.6,8.2-4.6,11.3l-135,135c-3.2,3.2-7.1,4.7-11.2,4.7c-4,0-8.1-1.6-11.1-4.7c-6.3-6.2-6.3-16.3,0-22.5l123.7-123.8L657.6,259c-6.2-6.2-6.2-16.3,0-22.5C663.7,230.2,673.7,230.2,679.9,236.4z"/></g><g></g><g></g><g></g><g></g><g></g><g></g><g></g><g></g><g></g><g></g><g></g><g></g><g></g><g></g><g></g></g>
</svg>
